<svg xmlns="http://www.w3.org/2000/svg" viewBox="0 0 40 40"><path fill="#CFD8E5" d="M33 34.5H7c-1.65 0-3-1.35-3-3v-23c0-1.65 1.35-3 3-3h26c1.65 0 3 1.35 3 3v23c0 1.65-1.35 3-3 3z"/><circle fill="#58595B" cx="20" cy="20" r="9.9"/><path fill="none" stroke="#F1F2F2" stroke-width="2.2" stroke-linecap="round" stroke-miterlimit="10" d="M20 20l-3-2"/><path fill="none" stroke="#F1F2F2" stroke-width="2.1" stroke-linecap="round" stroke-miterlimit="10" d="M20 20l5-6"/><path fill="none" stroke="#00A0E5" stroke-width="3" stroke-miterlimit="10" d="M20 5.5h13.75c.53 0 1.75.912 1.75 1.875v25.063c0 1.586-1.156 2.062-1.5 2.062h-5"/><path fill="#00A0E5" d="M32.542 29.5l-2.124 5 2.124 5-11.85-5"/><g><path fill="none" stroke="#00A0E5" stroke-width="3" stroke-miterlimit="10" d="M20 34.5H6.125c-.53 0-1.625-.85-1.625-1.812V7.625C4.5 6.04 6.53 5.5 6.875 5.5H11"/><path fill="#00A0E5" d="M7.333 10.562l2.124-5-2.124-5 11.85 5"/></g></svg>