<svg xmlns="http://www.w3.org/2000/svg" viewBox="0 0 40 40"><path fill="#CFD8E5" d="M33 35H7c-1.65 0-3-1.35-3-3V8c0-1.65 1.35-3 3-3h26c1.65 0 3 1.35 3 3v24c0 1.65-1.35 3-3 3z"/><path fill="none" stroke="#00A0E5" stroke-width="3" stroke-miterlimit="10" d="M19 5.5h14.75c.53 0 1.75.912 1.75 1.875v25.063c0 1.586-1.156 2.062-1.5 2.062h-5"/><path fill="#00A0E5" d="M32.373 29.723l-2.03 4.777 2.03 4.777L21.05 34.5"/><path fill="none" stroke="#00A0E5" stroke-width="3" stroke-miterlimit="10" d="M21 34.5H6.125c-.53 0-1.625-.85-1.625-1.812V7.625C4.5 6.04 6.53 5.5 6.875 5.5H11"/><path fill="#00A0E5" d="M7.502 10.34l2.03-4.778L7.5.785l11.324 4.777"/><path fill="#58595B" d="M13 27.89V11.434c0-.73 1.247-1.188 1.88-.823l14.478 8.227c.633.365.747 1.28.114 1.644L14.824 28.71c-.634.367-1.824-.09-1.824-.82z"/></svg>