<svg xmlns="http://www.w3.org/2000/svg" viewBox="0 0 40 40"><g opacity=".8" fill="#6A6A6B"><path d="M32 34H7c-1.105 0-2-.895-2-2V7c0-1.105.895-2 2-2h25c1.105 0 2 .895 2 2v25c0 1.105-.895 2-2 2z"/><path d="M32.933 34.933h-25c-1.105 0-2-.895-2-2v-25c0-1.105.895-2 2-2h25c1.105 0 2 .895 2 2v25c0 1.105-.895 2-2 2z"/></g><path fill="#6A6A6B" d="M31.067 33.067h-25c-1.105 0-2-.895-2-2v-25c0-1.105.895-2 2-2h25c1.105 0 2 .895 2 2v25c0 1.104-.896 2-2 2z" opacity=".4"/><path fill="#DAE2EA" d="M32 34H7c-1.105 0-2-.895-2-2V7c0-1.105.895-2 2-2h25c1.105 0 2 .895 2 2v25c0 1.105-.895 2-2 2z"/><g opacity=".7"><path fill="none" stroke="#00A0E5" stroke-width="2" stroke-miterlimit="1" d="M10 16H7V8h3.808"/><path fill="#00A0E5" d="M8.954 10.444L9.994 8l-1.04-2.444L14.748 8"/><g><path fill="none" stroke="#00A0E5" stroke-width="2" stroke-miterlimit="1" d="M15.026 8H17v8h-2"/><path fill="#00A0E5" d="M16.74 13.704L15.767 16l.975 2.296L11.3 16"/></g></g><g><path fill="#FFF" d="M11 11h16v15H11z"/><g stroke="#777" stroke-miterlimit="10"><path fill="#808285" d="M11.5 11.5v14H27 11.5v-12h15v11.667V11.5z"/><path fill="none" d="M16.5 13v12M21.5 13v12M11 17.5h16M11 21.5h16"/><path fill="#808285" d="M12 12.5h14v1H12z"/></g><path fill="#231F20" d="M25 29v-3h-3v-3h3v-3h3v3h3v3h-3v3"/><path fill="#FFF" d="M27 21v3h3v2h-3v3h-2v-3h-3v-2h3v-3h2m1-1h-4v3h-3v4h3v3h4v-3h3v-4h-3v-3z"/></g></svg>