<svg xmlns="http://www.w3.org/2000/svg" viewBox="0 0 40 40"><g opacity=".8" fill="#6A6A6B"><path d="M32 34H7c-1.105 0-2-.895-2-2V7c0-1.105.895-2 2-2h25c1.105 0 2 .895 2 2v25c0 1.105-.895 2-2 2z"/><path d="M32.933 34.933h-25c-1.105 0-2-.895-2-2v-25c0-1.105.895-2 2-2h25c1.105 0 2 .895 2 2v25c0 1.105-.895 2-2 2z"/></g><path fill="#6A6A6B" d="M31.067 33.067h-25c-1.105 0-2-.895-2-2v-25c0-1.105.895-2 2-2h25c1.105 0 2 .895 2 2v25c0 1.104-.896 2-2 2z" opacity=".4"/><path fill="#DAE2EA" d="M32 34H7c-1.105 0-2-.895-2-2V7c0-1.105.895-2 2-2h25c1.105 0 2 .895 2 2v25c0 1.105-.895 2-2 2z"/><g opacity=".7"><path fill="none" stroke="#00A0E5" stroke-width="2" stroke-miterlimit="1" d="M10 16H7V8h3.808"/><path fill="#00A0E5" d="M8.954 10.444L9.994 8l-1.04-2.444L14.748 8"/><g><path fill="none" stroke="#00A0E5" stroke-width="2" stroke-miterlimit="1" d="M15.026 8H17v8h-2"/><path fill="#00A0E5" d="M16.74 13.704L15.767 16l.975 2.296L11.3 16"/></g></g><g><g fill="#6A6A6B"><path d="M27 15v12.913c0 .525-.556 1.087-1.11 1.087H13.11c-.607 0-1.11-.516-1.11-1.087V12c0-.53.52-1 1.11-1H23l4 4z"/><path d="M28 16v12.913c0 .525-.556 1.087-1.11 1.087H14.11c-.607 0-1.11-.516-1.11-1.087V13c0-.53.52-1 1.11-1H24l4 4z"/></g><path fill="#BBB" d="M26 14v12.913c0 .525-.556 1.087-1.11 1.087H12.11c-.607 0-1.11-.516-1.11-1.087V11c0-.53.52-1 1.11-1H22l4 4z"/><path fill="#FFF" d="M27 15v12.913c0 .525-.556 1.087-1.11 1.087H13.11c-.607 0-1.11-.516-1.11-1.087V12c0-.53.52-1 1.11-1H23l4 4z"/><g><path fill="#919599" d="M23 11v2.926c0 .496.76 1.074 1.407 1.074H27l-4-4z"/></g><text transform="matrix(1 0 0 1.05 13.42 26.5)" fill="#393D40" font-family="'SourceSansPro-Semibold'" font-size="6">SQL</text></g></svg>