<svg xmlns="http://www.w3.org/2000/svg" viewBox="0 0 180 26" enable-background="new 0 0 180 26"><g fill="#fff"><path d="M10.9 2.1h2.2l9.7 22.8h-2.6l-2.5-6H6.2l-2.5 6H1.2l9.7-22.8zm6 14.5L12 5.1 7.2 16.6h9.7zM24.1 16.6c0-5.5 3.7-8.8 7.5-8.8 2.9 0 4.8 1.7 6 3.6V1.3h2.3v23.6h-2.3v-3.4c-1.3 2-3.1 3.7-6 3.7-3.8.1-7.5-3.1-7.5-8.6zm13.6 0c0-3.9-2.8-6.5-5.7-6.5-3 0-5.5 2.4-5.5 6.4v.1c0 3.9 2.6 6.5 5.5 6.5 2.9-.1 5.7-2.7 5.7-6.5zM43.1 8.2h2.6L51 22.1l5.3-13.9h2.5L52 25h-2L43.1 8.2zM62 1.8h2.7v2.7H62V1.8zm.1 6.4h2.3v16.7h-2.3V8.2zM68.2 22.8l1.2-1.8c1.7 1.4 3.6 2.1 5.4 2.1 1.9 0 3.3-1 3.3-2.7v-.1c0-1.7-1.9-2.3-3.9-2.9-2.5-.7-5.2-1.6-5.2-4.7v-.1c0-2.9 2.2-4.8 5.3-4.8 1.9 0 4 .7 5.7 1.8l-1.1 1.9c-1.5-1-3.1-1.6-4.7-1.6-1.9 0-3 1-3 2.4v.1c0 1.6 1.9 2.2 4 2.9 2.4.8 5 1.8 5 4.8v.1c0 3.2-2.5 5-5.6 5-2.2 0-4.7-.9-6.4-2.4zM83.2 16.6c0-4.8 3.5-8.8 8.2-8.8 4.7 0 8.2 3.9 8.2 8.7v.1c0 4.7-3.5 8.7-8.2 8.7-4.8 0-8.2-3.9-8.2-8.7zm14 0c0-3.7-2.5-6.6-5.8-6.6-3.4 0-5.7 2.9-5.7 6.5v.1c0 3.6 2.5 6.5 5.8 6.5s5.7-2.9 5.7-6.5zM102.7 8.2h2.3v4.4c1.2-2.8 3.4-4.8 6.4-4.7v2.7h-.2c-3.4 0-6.2 2.6-6.2 7.7V25h-2.3V8.2zM115.7 3.1h4.2l9.7 13.4V3.1h4.5v21.8h-3.9l-10-13.8v13.8h-4.5V3.1zM136.9 16.7c0-4.9 3.7-8.7 8.6-8.7 4.9 0 8.5 3.8 8.5 8.6v.1c0 4.8-3.7 8.7-8.6 8.7-4.9-.1-8.5-3.9-8.5-8.7zm12.7 0c0-2.5-1.7-4.7-4.2-4.7-2.6 0-4.1 2.1-4.1 4.5v.1c0 2.5 1.7 4.6 4.2 4.6 2.6 0 4.1-2.1 4.1-4.5zM154.8 8.2h4.6l2.5 10.1 3-10.2h3.9l3 10.2 2.6-10.1h4.5L173.8 25h-4l-3-10.2-3.2 10.2h-4l-4.8-16.8z"/></g></svg>