<svg xmlns="http://www.w3.org/2000/svg" width="12" height="12" viewBox="0 0 12 12"><g><radialGradient id="a" cx="6" cy="6.167" r="5.35" gradientUnits="userSpaceOnUse"><stop offset="0" stop-color="#8d3"/><stop offset="1" stop-color="#ADF651"/></radialGradient><path d="M6 11.5C3 11.5.7 9.1.7 6.1S3 .8 6 .8s5.3 2.4 5.3 5.4S9 11.5 6 11.5z" fill="url(#a)"/><path d="M6 1.5c2.6 0 4.7 2.1 4.7 4.7S8.6 10.9 6 10.9 1.3 8.8 1.3 6.2 3.4 1.5 6 1.5M6 .2c-3.3 0-6 2.7-6 6s2.7 6 6 6 6-2.7 6-6-2.7-6-6-6z" fill="#608040"/></g></svg>