<svg xmlns="http://www.w3.org/2000/svg" width="12" height="12" viewBox="0 0 12 12"><g><radialGradient id="a" cx="7.779" cy="6.239" r="5.755" gradientTransform="matrix(.891 0 0 .917 -.932 .489)" gradientUnits="userSpaceOnUse"><stop offset="0" stop-color="#F7CF22"/><stop offset=".258" stop-color="#F9D71B"/><stop offset="1" stop-color="#FFEB0A"/></radialGradient><path d="M1.1 11.3s-.2-.1-.3-.4c-.2-.4-.2-.9-.1-1l4.9-8.5c.1-.3.3-.3.4-.3s.3 0 .4.2l4.9 8.5c.1.2.1.6-.1 1-.1.3-.3.4-.3.4H1.1z" fill="url(#a)"/><path d="M6 2.1l4.6 8c0 .1 0 .3-.1.5h-9c-.1-.1-.1-.3-.1-.5l4.6-8M6 .4c-.4 0-.8.2-1 .6L.2 9.5c-.4.8.1 2.5 1 2.5h9.7c.9 0 1.4-1.7 1-2.5L7 1C6.8.6 6.4.4 6 .4z" fill="#807040"/></g></svg>