<svg xmlns="http://www.w3.org/2000/svg" viewBox="0 0 122 20"><path d="M9.3 10l3-2.5-3-5.1-3 5.1M4.6 14l-1.7-.6-2.5 4.3m4.9-4.3l3.4-2.8-2.8-2.4-2.6 4.5m9.8 1.7l-2.5.8 6 2.1M14 14.1l4.2 3.5-2.5-4.1m-10.2.8l-3.4 3 6-2.1m1.2-.4l3.1-1-3.1-2.7-3.1 2.6m3.7-3.1l3.4 2.9 2-.7-2.6-4.6m12.6-2.9h1.9l4 9.5H29l-.9-2.1h-4l-.9 2.1h-2.1l4.2-9.5zm2.2 5.5l-1.2-3.1-1.3 3.1h2.5zm5.8-5.5h2.1v7.6H40v1.9h-6.7V5.3zm8.8 0h3.8c2.2 0 3.6 1.3 3.6 3.3 0 2.2-1.7 3.3-3.8 3.3h-1.6v2.8H42V5.3zm3.7 4.8c1 0 1.6-.6 1.6-1.4 0-.9-.6-1.4-1.7-1.4h-1.6v2.9h1.7zm6-4.8h2.1v9.5h-2.1V5.3zm5.1 0h1.9l4.4 5.8V5.3h2v9.5h-1.8l-4.5-6v6h-2V5.3zm11.3 0h7.1v1.9h-5v1.9h4.4V11h-4.4v2h5.1v1.8h-7.1V5.3zm14.9 0h3.6c2.9 0 5 2 5 4.7s-2 4.7-5 4.7h-3.6V5.3zm2.1 1.9v5.7h1.6c1.7 0 2.8-1.1 2.8-2.8 0-1.7-1.1-2.8-2.8-2.8h-1.6zm11.5-1.9h1.9l4 9.5h-2.2l-.9-2.1h-4l-.9 2.1h-2.1l4.2-9.5zm2.2 5.5l-1.2-3.1-1.2 3.1h2.4zm6.9-3.6H103V5.3h7.8v1.9H108v7.5h-2.1V7.2zm9.1-1.9h1.9l4 9.5h-2.2l-.9-2.1h-4l-.9 2.1h-2.1l4.2-9.5zm2.1 5.5l-1.2-3.1-1.2 3.1h2.4z" fill="#FFF"/></svg>