<svg xmlns="http://www.w3.org/2000/svg" viewBox="0 0 140 18" enable-background="new 0 0 140 18"><g fill="#fff"><path d="M6.3 1.9H9l5.9 13.2h-3.2l-1.3-2.9H4.7l-1.3 2.9h-3L6.3 1.9zm3.1 7.7L7.6 5.3 5.8 9.6h3.6zM17.2 1.9h3v10.5H27V15h-9.9V1.9zM29.7 1.9h5.6c3.3 0 5.3 1.9 5.3 4.5 0 3-2.5 4.6-5.5 4.6h-2.3v3.9h-3v-13zm5.4 6.7c1.5 0 2.4-.9 2.4-2 0-1.3-.9-2-2.4-2h-2.3v4h2.3zM43.3 1.9h3V15h-3V1.9zM50.1 1.9h2.8l6.4 8.1V1.9h3V15h-2.6l-6.6-8.3V15h-3V1.9zM66 1.9h10.3v2.6H69v2.7h6.5v2.6H69v2.8h7.4v2.6H66V1.9zM85.8 1.9h5.3c4.3 0 7.3 2.8 7.3 6.5s-3 6.6-7.3 6.6h-5.3V1.9zm3 2.7v7.9h2.3c2.5 0 4.1-1.6 4.1-3.9s-1.7-4-4.1-4h-2.3zM105.2 1.9h2.8l5.9 13.2h-3.2l-1.3-2.9h-5.8l-1.3 2.9h-3.1l6-13.2zm3.1 7.7l-1.8-4.3-1.8 4.3h3.6zM117.5 4.6h-4.2V1.9h11.4v2.7h-4.2v10.5h-3V4.6zM130.2 1.9h2.8l5.9 13.2h-3.2l-1.3-2.9h-5.8l-1.3 2.9h-3.1l6-13.2zm3.1 7.7l-1.8-4.3-1.8 4.3h3.6z"/></g></svg>