<svg xmlns="http://www.w3.org/2000/svg" viewBox="0 0 320 50" enable-background="new 0 0 320 50"><path fill="#109AD6" d="M.5 47.2l33.9-29.5-8.5-14.8z"/><path fill="#96C93D" d="M.5 47.2l42.4-14.7-8.5-14.8z"/><path fill="#109AD6" d="M51.4 47.2l-34-29.5 8.5-14.8z"/><path fill="#73CFEA" d="M51.4 47.2L9 32.5l8.4-14.8z"/><g fill="#58595B"><path d="M69.2 12.8h5.2l10.9 25.6h-5.8l-2.3-5.7H66.3L64 38.4h-5.7l10.9-25.6zm5.9 14.9l-3.4-8.2-3.4 8.2h6.8zM89.9 13h5.6v20.3h12.7v5.1H89.9V13zM113.1 13h10.4c6.1 0 9.7 3.6 9.7 8.8v.1c0 5.9-4.6 8.9-10.3 8.9h-4.2v7.6h-5.6V13zm10 12.8c2.8 0 4.4-1.7 4.4-3.8v-.1c0-2.5-1.7-3.8-4.5-3.8h-4.3v7.8h4.4zM138.6 13h5.6v25.4h-5.6V13zM151.3 13h5.2l11.9 15.6V13h5.5v25.4h-4.8l-12.3-16.2v16.2h-5.5V13zM180.7 13h19.2v5h-13.6v5.2h12v5h-12v5.3h13.8v5h-19.3V13zM218.2 13h9.9c8 0 13.5 5.5 13.5 12.6v.1c0 7.2-5.5 12.7-13.5 12.7h-9.9V13zm9.9 20.3c4.6 0 7.7-3.1 7.7-7.6v-.1c0-4.5-3.1-7.7-7.7-7.7h-4.3v15.3h4.3zM254.2 12.8h5.2l10.9 25.6h-5.8l-2.3-5.7h-10.7l-2.3 5.7h-5.7l10.7-25.6zm5.9 14.9l-3.4-8.2-3.4 8.2h6.8zM277.5 18.1h-7.7V13h21.1v5.2h-7.7v20.3h-5.6V18.1zM300.9 12.8h5.2L317 38.4h-5.8l-2.3-5.7h-10.7l-2.3 5.7h-5.7l10.7-25.6zm5.9 14.9l-3.4-8.2-3.4 8.2h6.8z"/></g><path fill="#58595B" d="M314.5 13h-.9v2.5h-.3V13h-.9v-.3h2.1v.3zm3.4 2.6h-.3v-2.5l-1 2.5h-.2l-1-2.5v2.5h-.4v-2.8h.6l.8 2.1.8-2.1h.6v2.8z"/></svg>