<!DOCTYPE svg PUBLIC "-//W3C//DTD SVG 1.1//EN" "http://www.w3.org/Graphics/SVG/1.1/DTD/svg11.dtd">
<svg version="1.1" id="Layer_1" xmlns="http://www.w3.org/2000/svg" xmlns:xlink="http://www.w3.org/1999/xlink" x="0px" y="0px"
viewBox="0 0 320 50" enable-background="new 0 0 320 50" xml:space="preserve">
<g>
	<path fill="#109AD6" d="M0.5,47.2L0.5,47.2l0.9-0.5l14.1-12.2l-6.1-2.3l-0.2,0.4L0.5,47.2z M25.9,2.9L25.9,2.9l8.5,14.8l0,0L25.9,2.9"/>
	<path fill="#96C93D" d="M15.1,34.5L0.5,47.2l25.7-8.9l-10.5-3.7L15.1,34.5z"/>
	<path fill="#109AD6" d="M42.4,32.5l-6.1,2.1l15.1,12.7l-8.6-15L42.4,32.5z M25.9,2.9l-5.3,9.3L25.9,2.9L25.9,2.9"/>
	<polyline fill="#015DB4" points="25.9,2.9 20.6,12.2 17.3,17.9 25.9,25.6 34.6,18 25.9,2.9 "/>
	<polyline fill="#097933" points="34.4,17.7 25.9,25.1 36.8,34.6 42.9,32.5 42.8,32.3 34.4,17.7"/>
	<polygon fill="#73CFEA" points="36.6,34.6 25.8,38.3 51.4,47.2 36.8,34.6"/>
	<polyline fill="#077DC4" points="9.2,32.5 15.3,34.6 26.1,25.2 17.4,17.7"/>
	<polyline fill="#44A338" points="25.9,25.1 15,34.6 25.9,38.4 36.8,34.6 25.9,25.1"/>
</g>
<g>
	<g>
		<path fill="#58595B" d="M68.5,12.8h5.2l10.9,25.6h-5.8l-2.3-5.7H65.6l-2.3,5.7h-5.7L68.5,12.8z M74.3,27.7L71,19.5l-3.4,8.2H74.3z"/>
		<path fill="#58595B" d="M89.1,13h5.6v20.3h12.7v5.1H89.1V13z"/>
		<path fill="#58595B" d="M112.3,13h10.4c6.1,0,9.7,3.6,9.7,8.8v0.1c0,5.9-4.6,8.9-10.3,8.9h-4.2v7.6h-5.6V13z M122.4,25.8
			c2.8,0,4.4-1.7,4.4-3.8v-0.1c0-2.5-1.7-3.8-4.5-3.8h-4.3v7.8H122.4z"/>
		<path fill="#58595B" d="M137.9,13h5.6v25.4h-5.6V13z"/>
		<path fill="#58595B" d="M150.6,13h5.2l11.9,15.6V13h5.5v25.4h-4.8l-12.3-16.2v16.2h-5.5V13z"/>
		<path fill="#58595B" d="M180,13h19.2v5h-13.6v5.2h12v5h-12v5.3h13.8v5H180V13z"/>
		<path fill="#58595B" d="M217.4,13h9.9c8,0,13.5,5.5,13.5,12.6v0.1c0,7.2-5.5,12.7-13.5,12.7h-9.9V13z M227.3,33.3
			c4.6,0,7.7-3.1,7.7-7.6v-0.1c0-4.5-3.1-7.7-7.7-7.7H223v15.3H227.3z"/>
		<path fill="#58595B" d="M253.4,12.8h5.2l10.9,25.6h-5.8l-2.3-5.7h-10.7l-2.3,5.7h-5.7L253.4,12.8z M259.3,27.7l-3.4-8.2l-3.4,8.2H259.3z"/>
		<path fill="#58595B" d="M276.8,18.1H269V13h21.1v5.2h-7.7v20.3h-5.6V18.1z"/>
		<path fill="#58595B" d="M300.2,12.8h5.2l10.9,25.6h-5.8l-2.3-5.7h-10.7l-2.3,5.7h-5.7L300.2,12.8z M306.1,27.7l-3.4-8.2l-3.4,8.2H306.1z"/>
	</g>
	<g>
		<path fill="#58595B" d="M313.7,13h-0.9v2.5h-0.3V13h-0.9v-0.3h2.1V13z M317.1,15.6h-0.3v-2.5h0l-1,2.5h-0.2l-1-2.5h0v2.5h-0.3v-2.8h0.6l0.8,2.1h0l0.8-2.1h0.6V15.6z"/>
	</g>
</g>
</svg>